<?xml version="1.0" encoding="UTF-8"?>
<svg width="30px" height="43px" viewBox="0 0 30 43" version="1.1" xmlns="http://www.w3.org/2000/svg" xmlns:xlink="http://www.w3.org/1999/xlink">
    <!-- Generator: Sketch 51.3 (57544) - http://www.bohemiancoding.com/sketch -->
    <title>Combined Shape</title>
    <desc>Created with Sketch.</desc>
    <defs></defs>
    <g id="Page-1" stroke="none" stroke-width="1" fill="none" fill-rule="evenodd">
        <g id="任务-咨询任务--申请X光检查" transform="translate(-378.000000, -555.000000)" stroke="#C1C1C1">
            <g id="Group-42" transform="translate(52.000000, 487.000000)">
                <g id="Group-38" transform="translate(19.000000, 68.000000)">
                    <g id="Group-35" transform="translate(307.000000, 0.000000)">
                        <path d="M17.5,40 L17.5,23.5 L26,23.5 C27.9329966,23.5 29.5,21.9329966 29.5,20 L29.5,4 C29.5,2.06700338 27.9329966,0.5 26,0.5 L4,0.5 C2.06700338,0.5 0.5,2.06700338 0.5,4 L0.5,20 C0.5,21.9329966 2.06700338,23.5 4,23.5 L12.5,23.5 L12.5,40 C12.5,41.3807119 13.6192881,42.5 15,42.5 C16.3807119,42.5 17.5,41.3807119 17.5,40 Z" id="Combined-Shape"></path>
                    </g>
                </g>
            </g>
        </g>
    </g>
</svg>