<?xml version="1.0" encoding="UTF-8"?>
<svg width="28px" height="27px" viewBox="0 0 28 27" version="1.1" xmlns="http://www.w3.org/2000/svg" xmlns:xlink="http://www.w3.org/1999/xlink">
    <!-- Generator: Sketch 51.3 (57544) - http://www.bohemiancoding.com/sketch -->
    <title>Group 5</title>
    <desc>Created with Sketch.</desc>
    <defs></defs>
    <g id="Page-1" stroke="none" stroke-width="1" fill="none" fill-rule="evenodd">
        <g id="任务-咨询任务--申请X光检查" transform="translate(-351.000000, -596.000000)" fill="#EF8200">
            <g id="Group-42" transform="translate(52.000000, 487.000000)">
                <g id="Group-38" transform="translate(19.000000, 68.000000)">
                    <g id="Group-34" transform="translate(0.000000, 41.000000)">
                        <g id="Group-34-Copy-7" transform="translate(280.000000, 0.000000)">
                            <g id="Group-5">
                                <g id="Combined-Shape">
                                    <path d="M26.3860179,13.0886356 C26.098538,14.8934544 25.548967,16.7366626 24.5173259,18.3741807 C22.6011879,22.7982421 19.9220368,26.9923888 17.9831341,26.9923888 C17.7037907,26.9923888 17.4600937,26.9537702 17.2473319,26.8821984 C16.9026619,26.9333093 16.6505729,26.8575145 16.6018391,26.4869999 C15.8269104,25.7206806 15.7753522,24.2062773 15.7237703,22.8136998 C15.6351791,20.5555967 15.4659848,19.0035385 14.0030187,18.7456055 L13.0711989,18.7456055 C12.9851863,18.7607707 12.903646,18.7804095 12.8263315,18.8044024 L11.8872821,19.586004 C11.4899405,20.3038815 11.4050402,21.4253407 11.3506244,22.8136998 C11.2775963,24.7814257 11.204758,26.9923888 9.09111828,26.9923888 C6.37004974,26.9923888 2.191171,18.732097 0.684960105,13.1683888 C-1.1128413,6.48714622 0.733503163,1.55530439 5.49537311,0.267655888 C7.92485114,-0.388363445 10.2086525,0.170569772 12.1280251,1.87119016 C12.9297211,2.57575255 14.120236,2.57575255 14.921932,1.87119016 C16.8170093,0.170569772 19.125106,-0.388363445 21.554584,0.267655888 C26.2974871,1.52602439 28.1239419,6.44772401 26.3860179,13.0886356 Z"></path>
                                </g>
                            </g>
                        </g>
                    </g>
                </g>
            </g>
        </g>
    </g>
</svg>