<?xml version="1.0" encoding="UTF-8"?>
<svg width="29px" height="29px" viewBox="0 0 29 29" version="1.1" xmlns="http://www.w3.org/2000/svg" xmlns:xlink="http://www.w3.org/1999/xlink">
    <!-- Generator: Sketch 51.3 (57544) - http://www.bohemiancoding.com/sketch -->
    <title>Group 5</title>
    <desc>Created with Sketch.</desc>
    <defs></defs>
    <g id="Page-1" stroke="none" stroke-width="1" fill="none" fill-rule="evenodd">
        <g id="任务-咨询任务--申请X光检查" transform="translate(-407.000000, -595.000000)" fill="#C1C1C1" stroke="#C1C1C1" stroke-width="0.5">
            <g id="Group-42" transform="translate(52.000000, 487.000000)">
                <g id="Group-38" transform="translate(19.000000, 68.000000)">
                    <g id="Group-34-Copy-9" transform="translate(337.000000, 41.000000)">
                        <g id="Group-5">
                            <g id="Combined-Shape">
                                <path d="M13.5613977,18.1489634 C16.1610374,18.1489634 16.2338757,20.627032 16.3067615,22.8136998 C16.3795998,25.0730162 16.5254663,26.4335504 17.9831341,26.4335504 C20.1698019,26.4335504 24.2513573,18.9020689 25.8305014,13.0469599 C27.166693,8.09068049 26.7051306,2.25986678 21.4330128,0.850789455 C19.1736965,0.243360633 17.1085998,0.729218278 15.3349039,2.3327051 C14.3145032,3.23167698 12.783997,3.23167698 11.7635963,2.3327051 C9.99009016,0.729218278 7.9493362,0.243360633 5.6655348,0.850789455 C0.393369596,2.25986678 -0.0681453427,8.06643269 1.26809367,13.0469599 C2.82284763,18.9020689 6.92874569,26.4335504 9.11541353,26.4335504 C10.5730814,26.4335504 10.7189478,25.0730162 10.7917861,22.8136998 C10.8646244,20.627032 10.961758,18.1489634 13.5613977,18.1489634 M17.9831341,26.9923888 C15.8694944,26.9923888 15.7966561,24.7814257 15.7237703,22.8136998 C15.6265418,20.3354415 15.4322272,18.707612 13.5371025,18.707612 C11.6420251,18.707612 11.447758,20.3354415 11.3506244,22.8136998 C11.2775963,24.7814257 11.204758,26.9923888 9.09111828,26.9923888 C6.37004974,26.9923888 2.191171,18.732097 0.684960105,13.1683888 C-1.1128413,6.48714622 0.733503163,1.55530439 5.49537311,0.267655888 C7.92485114,-0.388363445 10.2086525,0.170569772 12.1280251,1.87119016 C12.9297211,2.57575255 14.120236,2.57575255 14.921932,1.87119016 C16.8170093,0.170569772 19.125106,-0.388363445 21.554584,0.267655888 C26.316454,1.53105659 28.1385032,6.48714622 26.364997,13.1683888 C24.8830814,18.732097 20.7041552,26.9923888 17.9831341,26.9923888 Z"></path>
                            </g>
                        </g>
                    </g>
                </g>
            </g>
        </g>
    </g>
</svg>